<svg width="25" height="25" viewBox="0 0 25 25" fill="none" xmlns="http://www.w3.org/2000/svg">
<path d="M24.4234 0.521191C24.3442 0.364445 24.223 0.232748 24.0734 0.140738C23.9237 0.0487282 23.7515 1.0463e-05 23.5759 0L1.42405 0C1.24841 1.39404e-05 1.07622 0.0487336 0.926606 0.140744C0.776998 0.232753 0.655835 0.364449 0.576585 0.521191C0.49747 0.677999 0.463368 0.853667 0.478064 1.02869C0.49276 1.20371 0.555681 1.37123 0.659837 1.51265L9.33547 13.2867V24.0506C9.33547 24.575 9.76047 25 10.2848 25H14.7152C15.2396 25 15.6646 24.575 15.6646 24.0506V13.2867L24.3402 1.51265C24.4444 1.37126 24.5073 1.20373 24.522 1.0287C24.5367 0.853661 24.5026 0.67798 24.4234 0.521191V0.521191ZM13.9509 12.4117C13.8306 12.5748 13.7657 12.7721 13.7658 12.9747V23.1013H11.2342V12.9747C11.2342 12.7718 11.1693 12.5747 11.049 12.4117L3.30281 1.89873H21.6974L13.9509 12.4117Z" fill="white"/>
</svg>
