<?xml version="1.0" encoding="utf-8"?>
<!-- Generator: Adobe Illustrator 24.0.1, SVG Export Plug-In . SVG Version: 6.00 Build 0)  -->
<svg version="1.1" id="Layer_1" xmlns="http://www.w3.org/2000/svg" xmlns:xlink="http://www.w3.org/1999/xlink" x="0px" y="0px"
	 viewBox="0 0 31.1 31.1" enable-background="new 0 0 31.1 31.1" xml:space="preserve">
<path fill="#8D9CB6" d="M20,18.4L30.4,8L23,0.6L12.6,11l3,3L14,15.6l-3-3L0.6,23L8,30.4L18.4,20l-3-3l1.6-1.6L20,18.4z M15.6,20
	L8,27.6L3.4,23l7.6-7.6l1.6,1.6l-2.3,2.3l1.4,1.4l2.3-2.3L15.6,20z M15.4,11L23,3.4L27.6,8L20,15.6L18.4,14l2.3-2.3l-1.4-1.4
	L17,12.6L15.4,11z"/>
</svg>
